<?xml version="1.0" standalone="no"?>
<!DOCTYPE svg PUBLIC "-//W3C//DTD SVG 20010904//EN"
 "http://www.w3.org/TR/2001/REC-SVG-20010904/DTD/svg10.dtd">
<svg version="1.0" xmlns="http://www.w3.org/2000/svg"
 width="1024.000000pt" height="1024.000000pt" viewBox="0 0 1024.000000 1024.000000"
 preserveAspectRatio="xMidYMid meet">
<metadata>
Created by potrace 1.14, written by Peter Selinger 2001-2017
</metadata>
<g transform="translate(0.000000,1024.000000) scale(0.100000,-0.100000)"
fill="#000000" stroke="none">
<path d="M5000 9751 c-478 -153 -1296 -1116 -2212 -2606 -1057 -1719 -1934
-3602 -2223 -4776 -68 -274 -88 -422 -89 -634 -1 -208 7 -258 55 -362 222
-472 1660 -811 3789 -893 329 -13 1253 -13 1575 0 1966 77 3321 357 3725 769
115 117 150 223 150 458 0 168 -18 319 -65 538 -232 1081 -1098 2986 -2148
4725 -971 1608 -1832 2639 -2326 2784 -70 21 -162 20 -231 -3z m262 -1858
c359 -169 999 -994 1641 -2115 817 -1426 1339 -2774 1258 -3242 -25 -145 -101
-231 -286 -323 -665 -334 -2569 -477 -4145 -312 -902 94 -1484 280 -1612 515
-93 171 -45 543 142 1087 407 1191 1398 2975 2151 3874 174 208 393 415 521
492 114 69 218 76 330 24z"/>
<path d="M5075 6198 c-232 -86 -688 -719 -1084 -1503 -143 -282 -256 -546
-326 -759 -65 -197 -88 -312 -83 -422 3 -74 6 -86 34 -120 143 -176 810 -287
1639 -271 165 3 354 11 420 17 577 51 915 151 971 287 17 39 18 156 3 239
-105 587 -824 1919 -1283 2380 -139 139 -217 180 -291 152z"/>
</g>
</svg>
